<svg id="Group_13" data-name="Group 13" xmlns="http://www.w3.org/2000/svg" width="22.508" height="25.935" viewBox="0 0 22.508 25.935">
  <path id="Path_1" data-name="Path 1" d="M18.94,35.189H3.568A3.572,3.572,0,0,1,0,31.621V14.7H22.508V31.621A3.572,3.572,0,0,1,18.94,35.189ZM1.852,16.552V31.621a1.719,1.719,0,0,0,1.715,1.715H18.936a1.719,1.719,0,0,0,1.715-1.715V16.552Z" transform="translate(0 -9.254)" fill="#fff"/>
  <path id="Path_2" data-name="Path 2" d="M26.859,11.819H25.007V3a1.15,1.15,0,0,0-1.149-1.149H18.371A1.15,1.15,0,0,0,17.222,3v8.818H15.37V3a3.005,3.005,0,0,1,3-3h5.487a3.005,3.005,0,0,1,3,3Z" transform="translate(-9.675)" fill="#fff"/>
</svg>
