<?xml version="1.0" encoding="utf-8"?>
<!-- Generator: Adobe Illustrator 21.1.0, SVG Export Plug-In . SVG Version: 6.00 Build 0)  -->
<svg version="1.1" id="Warstwa_1" xmlns="http://www.w3.org/2000/svg" xmlns:xlink="http://www.w3.org/1999/xlink" x="0px" y="0px"
	 viewBox="0 0 334.5 69.8" style="enable-background:new 0 0 334.5 69.8;" xml:space="preserve">
<style type="text/css">
	.st0{fill-rule:evenodd;clip-rule:evenodd;}
	.st1{fill-rule:evenodd;clip-rule:evenodd;fill:#FF0102;}
	.st2{fill-rule:evenodd;clip-rule:evenodd;fill:#FFFFFF;}
</style>
<g>
	<path class="st0" d="M329.7,33.1h-10.8v14.1h14.8V49h-16.8V17.8h15.4v1.8h-13.4v11.7h10.8V33.1z M281.6,21.8
		c3.2,3.1,4.7,7,4.7,11.7c0,4.4-1.6,8.2-4.8,11.4c-3.2,3.1-7,4.7-11.5,4.7c-4.6,0-8.5-1.6-11.7-4.7c-3.2-3.1-4.7-6.9-4.7-11.4
		c0-4.5,1.6-8.4,4.7-11.5c3.2-3.2,7.1-4.7,11.7-4.7C274.6,17.2,278.5,18.7,281.6,21.8z M270,19.1c-4,0-7.4,1.3-10.2,4
		c-2.8,2.7-4.2,6.1-4.2,10.1c0,3.9,1.4,7.3,4.1,10.2c2.8,2.9,6.1,4.3,10,4.3c4.1,0,7.6-1.4,10.4-4.1c2.8-2.7,4.2-6.1,4.2-10.2
		c0-4.2-1.4-7.6-4.2-10.4C277.3,20.4,274,19.1,270,19.1z M252.4,19.6h-9V49h-2V19.6h-9v-1.8h20.1V19.6z M298.5,17.8
		c2.8,0,5.1,0.6,7,1.9c2.3,1.6,3.5,3.9,3.5,7c0,2.8-0.9,5-2.7,6.8c-1.9,1.7-4.4,2.7-7.6,2.8L312.4,49h-3l-13.1-12.8h-1.8V49h-2V17.8
		H298.5z M294.5,19.6v14.9h2.5c3.2,0,5.7-0.7,7.4-2c1.7-1.3,2.6-3.3,2.6-5.8c0-2.3-0.8-4-2.4-5.3c-1.5-1.2-3.5-1.8-6.1-1.8H294.5z
		 M212.6,44.1c1.9,2.4,4.5,3.6,8,3.6c2,0,3.7-0.6,5-1.7c1.3-1.2,2-2.8,2-4.7c0-2.1-0.8-3.8-2.3-5.2c-0.9-0.8-2.6-1.9-5-3.1
		c-2.4-1.2-4.1-2.2-5-3c-1.5-1.4-2.3-3.1-2.3-5.2c0-2.4,0.8-4.3,2.5-5.7c1.6-1.3,3.5-2,5.9-2c1.6,0,3.1,0.3,4.6,1
		c1.1,0.5,2,1.1,2.7,1.9l-1.2,1.3c-1.6-1.6-3.7-2.5-6.1-2.5c-1.8,0-3.3,0.5-4.4,1.4c-1.3,1-1.9,2.4-1.9,4.2c0,1.8,0.8,3.3,2.3,4.4
		c0.7,0.6,2.4,1.5,5.1,2.8c2.3,1.2,4,2.3,5,3.4c1.5,1.6,2.3,3.7,2.3,6.2c0,2.2-0.8,4.1-2.4,5.7c-1.8,1.7-4.1,2.6-6.9,2.6
		c-2,0-3.9-0.5-5.8-1.4c-1.6-0.8-2.7-1.7-3.4-2.7L212.6,44.1z M188.3,46.3c0.1-0.5,0.3-1,0.6-1.6l13-27.1l3.2,31.8h-2l-2.3-25.1
		l-12.5,26.2l-12.5-26.2l-2.3,25.1h-2l3.1-31.8l13,27.1C188,45.3,188.2,45.8,188.3,46.3z M133.2,20.3h-9v29.2h-2V20.3h-8.9v-1.7
		h19.9V20.3z M140.4,43.9c2.8,2.9,6.1,4.3,9.9,4.3c4.1,0,7.5-1.3,10.3-4c2.8-2.7,4.1-6.1,4.1-10.1c0-4.1-1.4-7.5-4.2-10.3
		c-2.7-2.7-6-4-9.9-4c-4,0-7.4,1.3-10.1,4c-2.8,2.7-4.1,6.1-4.1,10.1C136.4,37.7,137.7,41.1,140.4,43.9z M134.3,34
		c0-4.5,1.6-8.3,4.7-11.4c3.2-3.1,7-4.7,11.6-4.7c4.6,0,8.4,1.5,11.4,4.6c3.2,3.1,4.7,6.9,4.7,11.6c0,4.4-1.6,8.1-4.8,11.2
		c-3.2,3.1-7,4.6-11.4,4.6c-4.6,0-8.4-1.6-11.6-4.7C135.9,42.2,134.3,38.5,134.3,34z M112.6,49.5l-4-9.1H93l-4,9.1H87l13.9-31.8
		l13.8,31.8H112.6z M93.8,38.5h14l-6.2-14.4c-0.4-0.7-0.6-1.4-0.8-2.1L93.8,38.5z"/>
</g>
<g>
	<path class="st1" d="M59.1,59.1c-6.7,6.7-14.8,10.1-24.3,10.1c-9.5,0-17.6-3.4-24.3-10.1C3.7,52.4,0.4,44.3,0.4,34.8
		c0-9.5,3.4-17.6,10.1-24.3C17.2,3.7,25.3,0.3,34.8,0.3c9.5,0,17.6,3.4,24.3,10.1c6.7,6.7,10.1,14.8,10.1,24.3
		C69.2,44.3,65.8,52.4,59.1,59.1z"/>
	<g>
		<path class="st2" d="M34.2,28.6c-0.5-2.6-2.1-4.7-4.9-6.2c-1.1-0.6-2.3-1.1-3.8-1.4l0.3-0.2c3.2-2.1,6.2-3.3,9.1-3.4
			c2.1-0.1,4.2,0.5,6.3,1.9c1,0.7,1.9,1.4,2.5,2.2l-0.4-0.3c-0.6-0.4-1.3-0.7-2-1c-1.3-0.4-2.4-0.3-3.3,0.3
			c-1.7,1.1-2.2,3.2-1.7,6.2c0.4,1.9,1.2,4,2.3,6.3c-2.9,1.4-4.9,3-5.9,4.9c-0.6,1.1-0.8,2.1-0.5,3c0.6,2.1,2.6,3.1,5.9,3.1
			c1.1,0,2.4-0.1,3.8-0.4c-0.3,3.6,0.4,5.7,2,6.3c0.4,0.2,0.9,0.3,1.2,0.3c0.5,0,1-0.1,1.5-0.4c1.2-0.6,2.3-1.8,3.3-3.8
			c0.6-0.9,1-1.9,1.4-3l2.2,0.8c-0.8,1.6-1.8,3.3-2.9,4.9c-2.1,3-4.5,5.2-7.2,6.6c-2.3,1.1-4.6,1.7-7.1,1.7c-1,0-2.1-0.1-3.1-0.3
			c-4.9-1-7.4-3.8-7.5-8.2l0-0.6c0.4,0.9,1.1,1.7,2.1,2.4c1.1,0.7,2.2,1,3.3,0.8c1.8-0.3,2.6-1.4,2.6-3.3c0-0.7-0.3-1.4-0.8-2.2
			c-0.8-1.1-2-1.9-3.6-2.2c-2-0.4-3.9-0.1-5.8,1.1c-1.9,1.1-3.8,1.6-5.5,1.2c-1.8-0.3-3.1-1.3-4.1-2.8c-1.1-1.8-1.1-4-0.1-6.6
			c0.4,0.7,0.9,1.4,1.5,2c0.8,0.7,1.6,1.2,2.5,1.3c1,0.2,2,0,3-0.6c1.1-0.7,1.7-1.8,1.8-3.3c0.1-1.5-0.4-2.8-1.7-3.8
			c-1.3-1.1-2.8-1.3-4.4-0.6c-2.4,1-4.6,1-6.4,0.2c-1.6-0.8-2.6-2-3.2-3.8c-0.5-1.8-0.3-3.7,0.6-5.9c0,0,0.2,0.3,0.6,0.8
			c0.5,0.8,1.1,1.4,1.7,1.8c2,1.5,4.4,1.2,7.1-0.9c0.8-0.6,1.7-1,2.7-1.3c0.9-0.2,1.6-0.2,2.3-0.1c2.1,0.4,3.6,1.3,4.5,2.6
			c0.8,1.1,1.3,2.9,1.6,5.4c0.1,1.3,0.6,2.3,1.2,2.9c0.9,0.9,2.2,0.9,3.8,0.1C34.1,32.5,34.6,30.9,34.2,28.6z"/>
		<path class="st2" d="M56,33.6L55.6,36c-1,0.6-2.2,1.3-3.4,1.9c0-1.9-0.3-3.7-0.8-5.5C53.3,32.6,54.8,33,56,33.6z"/>
		<path class="st2" d="M58.5,25.5c1.8-0.4,3.2-0.4,4-0.1c0.4,0.2,0.7,0.5,0.9,1.1c0.2,0.8,0.1,1.6-0.3,2.5c-0.4,0.7-0.8,1.4-1.3,2.1
			c-0.9,1.1-2.2,2.3-3.8,3.4C58.3,31.2,58.5,28.2,58.5,25.5z"/>
		<path class="st2" d="M60,35.3c1.1,0.7,2,1.4,2.6,2.2c1,1.2,1.3,2.4,0.9,3.4c-0.3,0.7-0.8,1.2-1.6,1.5c-1.3,0.5-3.3,0.5-6,0
			c0.6-1.7,1.1-3.4,1.4-5.2C58.4,36.5,59.3,35.8,60,35.3z"/>
		<path class="st2" d="M55.1,38.5c-0.3,1.4-0.7,2.5-1,3.4c-1-0.3-2.2-0.7-3.5-1.1C52.1,40.1,53.6,39.3,55.1,38.5z"/>
		<path class="st2" d="M44.4,48.1c-0.9-0.3-1.1-2-0.8-4.9l1.8-0.5c0.8-0.2,1.6-0.5,2.5-0.9l1.2,0.5c-0.4,1.2-0.9,2.2-1.4,3.2
			c-0.7,1.3-1.5,2.2-2.2,2.5C45.2,48.2,44.8,48.2,44.4,48.1z"/>
		<path class="st2" d="M49.4,32.3c0.7,2.2,1,4.4,0.9,6.5c-1.9,0.9-3.7,1.5-5.3,2l-1,0.3c0.4-2.6,1.2-5.4,2.1-8.4l0.1-0.1
			C47.3,32.4,48.4,32.3,49.4,32.3z"/>
		<path class="st2" d="M34.2,38.8c0.8-1.4,2.2-2.6,4.1-3.6c0.7-0.4,1.4-0.7,2.2-1.1c1-0.4,2.1-0.8,3.4-1.1l-0.3,0.8
			c-0.9,2.8-1.5,5.4-1.8,7.8c-2.4,0.5-4.4,0.6-5.8,0.3c-1.2-0.3-2-0.8-2.2-1.6C33.7,39.9,33.8,39.4,34.2,38.8z"/>
		<path class="st2" d="M48.6,30.4c-1.7,0.1-3.4,0.3-5.2,0.8c-1.2,0.3-2.3,0.7-3.3,1.1C39,30,38.3,27.9,38,26.1l-0.1-0.6l-0.1-1.1
			c0-1.1,0.4-1.9,1-2.4l0.2-0.1c0.8-0.2,1.8,0.1,3.2,0.9c1.2,0.8,2.4,1.9,3.6,3.2C47,27.5,47.9,28.9,48.6,30.4z"/>
		<path class="st2" d="M46,24c-0.4,0-0.8-0.1-1.1-0.4c-0.3-0.3-0.4-0.7-0.4-1.1c0-0.4,0.1-0.8,0.4-1.1c0.3-0.3,0.7-0.4,1.1-0.4
			c0.4,0,0.8,0.1,1.1,0.4c0.3,0.3,0.4,0.7,0.4,1.1c0,0.4-0.1,0.8-0.4,1.1C46.8,23.9,46.4,24,46,24z"/>
		<path class="st2" d="M53.9,19.2c0.5,0,0.9,0.3,1.3,1c0.5,0.9,0.9,2.2,1.1,3.8c-0.6,0.1-1.4,0.5-2.4,1c-0.3-0.2-0.6-0.4-1-0.4
			c-0.4,0-0.8,0.1-1.1,0.4c-0.3,0.3-0.4,0.7-0.4,1.1c0,0.4,0.1,0.8,0.4,1.1c0.3,0.3,0.7,0.4,1.1,0.4c0.3,0,0.6-0.1,0.9-0.3
			c0.3-0.2,0.5-0.5,0.5-0.8c0.6-0.3,1.4-0.5,2.3-0.7c0,1.8-0.1,3.7-0.3,5.7c-1.6-0.7-3.5-1.1-5.5-1.2l-0.6-1.3
			c-0.5-1-1.1-2.1-1.9-3.3c0.6-1.3,1.4-2.7,2.4-4.1C51.9,20,53,19.2,53.9,19.2z"/>
		<path class="st2" d="M63.5,32.4c0.4,0,0.8,0.1,1.1,0.4c0.3,0.3,0.4,0.7,0.4,1.1c0,0.4-0.1,0.8-0.4,1.1s-0.7,0.4-1.1,0.4
			c-0.4,0-0.8-0.1-1.1-0.4c-0.3-0.3-0.4-0.7-0.4-1.1c0-0.4,0.1-0.8,0.4-1.1C62.7,32.5,63.1,32.4,63.5,32.4z"/>
		<path class="st2" d="M55.8,45c0.4,0,0.8,0.1,1.1,0.4c0.3,0.3,0.4,0.7,0.4,1.1c0,0.4-0.1,0.8-0.4,1.1c-0.3,0.3-0.7,0.4-1.1,0.4
			c-0.4,0-0.8-0.1-1.1-0.4c-0.3-0.3-0.4-0.7-0.4-1.1c0-0.4,0.1-0.8,0.4-1.1C55,45.1,55.4,45,55.8,45z"/>
	</g>
</g>
</svg>
